<?xml version="1.0" encoding="UTF-8"?>
<svg id="Layer_1" xmlns="http://www.w3.org/2000/svg" version="1.1" xmlns:xlink="http://www.w3.org/1999/xlink" viewBox="0 0 1024 1024">
  <!-- Generator: Adobe Illustrator 30.1.0, SVG Export Plug-In . SVG Version: 2.1.1 Build 136)  -->
  <defs>
    <style>
      .st0 {
        fill: url(#linear-gradient2);
      }

      .st1 {
        fill: url(#linear-gradient1);
      }

      .st2 {
        fill: url(#linear-gradient);
      }
    </style>
    <linearGradient id="linear-gradient" x1="198.95" y1="-30.21" x2="825.05" y2="1054.21" gradientUnits="userSpaceOnUse">
      <stop offset="0" stop-color="#7c86ff"/>
      <stop offset="1" stop-color="#4f39f6"/>
    </linearGradient>
    <linearGradient id="linear-gradient1" x1="876.21" y1="189.46" x2="449.52" y2="928.5" gradientUnits="userSpaceOnUse">
      <stop offset="0" stop-color="#eef2ff"/>
      <stop offset="1" stop-color="#e0e7ff"/>
    </linearGradient>
    <linearGradient id="linear-gradient2" x1="375.31" y1="281.68" x2="204.51" y2="577.51" xlink:href="#linear-gradient1"/>
  </defs>
  <g id="Layer_2">
    <rect class="st2" width="1024" height="1024" rx="200.38" ry="200.38"/>
  </g>
  <g>
    <path class="st1" d="M918.14,501.83c-1.12,5.78-13.31,52.14-35.2,85.99-22.07,34.14-47.74,55.72-64.49,67.77,2.58-8.17,6.23-16.11,9.5-24,21.88-53.02,30.48-113.47,1.15-165.83-25.43-45.39-77.63-75.54-127-89.17-2.68,14.7-8.3,31.07-11.79,45.87-5.39,22.72-12.43,45.44-18.61,67.96l-22.34,83.32-41.08,152.2c-2.71,9.93-4.08,19.81-7.76,29.61-1.05,4.57-1.4,9.06-2.48,13.63-22.98,98.28-139.51,158.17-230.83,111.66-21.55-10.98-44.52-35.43-51.03-59.46-32.27-119.42,122.31-217.68,224.42-162.56,2.27-6.36,2.83-12.15,4.67-18.43,2.3-7.86,4.44-15.6,6.61-23.49l25.71-94.43,74.39-269.68,20.27-74.24c4.72-17.61,8.78-34.05,14.4-51.47,27.11.89,54.73-.13,81.95.23.54,70.2,30.35,122.56,73.6,175.51,0,0,59.8,64.67,71.38,119.12,2.28,10.74,3.7,21.59,3.7,21.59,1.35,11.21,1.94,20.57,2.21,27.6.32,8.53.25,11.45,0,16.71q-.31,6.63-1.34,13.98Z"/>
    <path class="st0" d="M272.28,222.19s162.79,291.25,217.94,389.36c-52.13-2.81-103.29,15.44-144.18,47.66-69.95-130.76-169.74-307.34-241.73-437.02"/>
  </g>
</svg>